<svg width="282" height="230" viewBox="0 -20 282 260" fill="none" xmlns="http://www.w3.org/2000/svg">
<g id="acid_rain">
<g id="rain">
<path class="raindrop dropOdd" id="dropBottomRight" fill-rule="evenodd" clip-rule="evenodd" d="M179.357 200.268C179.176 199.489 178.2 199.228 177.653 199.811L168.378 209.721L168.441 209.738C167.385 210.76 166.583 212.074 166.175 213.597C164.974 218.079 167.633 222.686 172.115 223.887C176.597 225.088 181.204 222.428 182.405 217.946C182.814 216.423 182.776 214.884 182.372 213.471L182.435 213.488L179.357 200.268Z" fill="#FBFF10"/>
<path class="raindrop dropOdd" id="dropBottomLeft" fill-rule="evenodd" clip-rule="evenodd" d="M110.148 190.902C109.966 190.124 108.99 189.862 108.443 190.446L94.3694 205.484L94.4611 205.508C92.9237 206.995 91.7572 208.906 91.1633 211.122C89.4163 217.642 93.2856 224.344 99.8056 226.091C106.326 227.838 113.028 223.969 114.775 217.449C115.368 215.232 115.313 212.995 114.726 210.938L114.817 210.963L110.148 190.902Z" fill="#FBFF10"/>


<path class="raindrop dropOdd" id="dropTopMid" fill-rule="evenodd" clip-rule="evenodd" d="M146.492 154.661C146.311 153.883 145.335 153.621 144.788 154.205L131.884 167.993L131.969 168.015C130.549 169.389 129.471 171.154 128.922 173.201C127.308 179.225 130.883 185.416 136.906 187.03C142.929 188.644 149.121 185.069 150.734 179.046C151.283 176.998 151.232 174.931 150.689 173.031L150.774 173.054L146.492 154.661Z" fill="#FBFF10"/>
<path class="raindrop drop" id="dropTopLeft" fill-rule="evenodd" clip-rule="evenodd" d="M77.8788 163.658C77.6976 162.88 76.7211 162.618 76.1748 163.202L66.7031 173.322L66.7673 173.339C65.6908 174.38 64.874 175.718 64.4581 177.27C63.2348 181.836 65.9442 186.528 70.5098 187.752C75.0754 188.975 79.7682 186.266 80.9916 181.7C81.4074 180.148 81.3688 178.581 80.9573 177.141L81.0215 177.158L77.8788 163.658Z" fill="#FBFF10"/>
<path class="raindrop drop" id="dropTopRight" fill-rule="evenodd" clip-rule="evenodd" d="M215.087 154.457C214.906 153.678 213.929 153.416 213.383 154L201.472 166.726L201.551 166.747C200.23 168.025 199.228 169.666 198.718 171.57C197.217 177.172 200.541 182.929 206.142 184.43C211.744 185.931 217.501 182.607 219.002 177.006C219.512 175.101 219.465 173.179 218.96 171.412L219.039 171.433L215.087 154.457Z" fill="#FBFF10"/>
</g>
<path id="cloud_cut" fill-rule="evenodd" clip-rule="evenodd" d="M32.4948 160.005C19.4168 149.858 11 133.99 11 116.156C11 85.5222 35.8333 60.6889 66.4667 60.6889L66.5852 60.689L66.7331 60.6895C78.7713 31.5249 107.489 11 141 11C178.803 11 210.506 37.1189 219.046 72.2951C219.797 72.2615 220.552 72.2444 221.311 72.2444C248.754 72.2444 271 94.4909 271 121.933C271 137.886 263.482 152.083 251.797 161.174C252.743 165.062 253.489 169.028 254.021 173.062C270.849 162.274 282 143.406 282 121.933C282 90.452 258.03 64.5691 227.345 61.5406C214.999 25.7318 181.016 0 141 0C105.404 0 74.5867 20.366 59.5255 50.047C26.0791 53.5177 0 81.7911 0 116.156C0 139.464 11.9936 159.965 30.1483 171.83C30.7234 167.816 31.5094 163.871 32.4948 160.005Z" fill="#F7FF9A"/>
</g>
</svg>
