<svg width="384" height="253" viewBox="0 0 384 253" fill="none" xmlns="http://www.w3.org/2000/svg">
<g id="miasma">
<g id="wind">
<path id="Vector 18" d="M50 193.5L57.7502 186.636C63.3716 181.657 71.7733 181.486 77.592 186.233V186.233C82.8702 190.539 90.3576 190.843 95.9672 186.978L99.4759 184.561C105.104 180.684 112.627 181.039 117.865 185.427V185.427C123.457 190.112 131.674 190.095 137.327 185.483V185.483C142.702 181.098 150.421 180.763 156.092 184.758L156.93 185.349C163.617 190.06 172.724 189.276 178.508 183.492L184 178" stroke="#595959" stroke-width="8" stroke-linecap="round" stroke-linejoin="round"/>
<path id="Vector 19" d="M50 248.5L57.7502 241.636C63.3716 236.657 71.7733 236.486 77.592 241.233V241.233C82.8702 245.539 90.3576 245.843 95.9672 241.978L99.4759 239.561C105.104 235.684 112.627 236.039 117.865 240.427V240.427C123.457 245.112 131.674 245.095 137.327 240.483V240.483C142.702 236.098 150.421 235.763 156.092 239.758L156.93 240.349C163.617 245.06 172.724 244.276 178.508 238.492L184 233" stroke="#595959" stroke-width="8" stroke-linecap="round" stroke-linejoin="round"/>
<path id="Vector 20" d="M94 219.5L101.75 212.636C107.372 207.657 115.773 207.486 121.592 212.233V212.233C126.87 216.539 134.358 216.843 139.967 212.978L143.476 210.561C149.104 206.684 156.627 207.039 161.865 211.427V211.427C167.457 216.112 175.674 216.095 181.327 211.483V211.483C186.702 207.098 194.421 206.763 200.092 210.758L200.93 211.349C207.617 216.06 216.724 215.276 222.508 209.492L228 204" stroke="#595959" stroke-width="8" stroke-linecap="round" stroke-linejoin="round"/>
</g>
<path id="cloud_full" fill-rule="evenodd" clip-rule="evenodd" d="M173.689 160.325C145.771 157.435 124 133.838 124 105.156C124 74.5222 148.833 49.6889 179.467 49.6889C179.506 49.6889 179.546 49.6889 179.585 49.689C179.635 49.6891 179.684 49.6893 179.733 49.6895C191.771 20.5249 220.489 0 254 0C291.803 0 323.506 26.1189 332.046 61.2951C332.797 61.2615 333.552 61.2444 334.311 61.2444C361.754 61.2444 384 83.4909 384 110.933C384 138.376 361.754 160.622 334.311 160.622H254H179.467H173.689V160.325Z" fill="#514D59"/>
<path id="cloud_cut" fill-rule="evenodd" clip-rule="evenodd" d="M32.4948 201.005C19.4168 190.858 11 174.99 11 157.156C11 126.522 35.8333 101.689 66.4667 101.689L66.5852 101.689L66.7331 101.69C78.7713 72.5249 107.489 52 141 52C178.803 52 210.506 78.1189 219.046 113.295C219.797 113.261 220.552 113.244 221.311 113.244C248.754 113.244 271 135.491 271 162.933C271 178.886 263.482 193.083 251.797 202.174C252.743 206.062 253.489 210.028 254.021 214.062C270.849 203.274 282 184.406 282 162.933C282 131.452 258.03 105.569 227.345 102.541C214.999 66.7318 181.016 41 141 41C105.404 41 74.5867 61.366 59.5255 91.047C26.0791 94.5177 0 122.791 0 157.156C0 180.464 11.9936 200.965 30.1483 212.83C30.7234 208.816 31.5094 204.871 32.4948 201.005Z" fill="#222222"/>
</g>
</svg>
