<svg width="100%" height="247" viewBox="0 0 282 247" fill="none" xmlns="http://www.w3.org/2000/svg">
<g class="radiation-storm">
<g id="radiation_storm">
<path id="cloud_cut" fill-rule="evenodd" clip-rule="evenodd" d="M32.4948 160.005C19.4168 149.858 11 133.99 11 116.156C11 85.5222 35.8333 60.6889 66.4667 60.6889L66.5852 60.689L66.7331 60.6895C78.7713 31.5249 107.489 11 141 11C178.803 11 210.506 37.1189 219.046 72.2951C219.797 72.2615 220.552 72.2444 221.311 72.2444C248.754 72.2444 271 94.4909 271 121.933C271 137.886 263.482 152.083 251.797 161.174C252.743 165.062 253.489 169.028 254.021 173.062C270.849 162.274 282 143.406 282 121.933C282 90.452 258.03 64.5691 227.345 61.5406C214.999 25.7318 181.016 0 141 0C105.404 0 74.5867 20.366 59.5255 50.047C26.0791 53.5177 0 81.7911 0 116.156C0 139.464 11.9936 159.965 30.1483 171.83C30.7234 167.816 31.5094 163.871 32.4948 160.005Z" fill="#EAF291"/>
<g id="lightning">
<g id="lightning_base">
<path id="lightning_2" fill-rule="evenodd" clip-rule="evenodd" d="M125.737 103.421H169.8L152.051 143.653H188L175.547 168.558H175.401L139.626 246.147V168.558H97L125.737 103.421Z" fill="#B7BE88"/>
<path id="Vector 12" d="M72.4416 145L57 174.425H86L72.4416 208" stroke="#92986E" stroke-width="10"/>
<path id="Vector 13" d="M212.442 145L197 174.425H226L212.442 208" stroke="#92986E" stroke-width="10"/>
</g>
<g id="lightning_flash" class="flash" opacity="0">
<path id="lightning_3" fill-rule="evenodd" clip-rule="evenodd" d="M125.737 103.421H169.8L152.051 143.653H188L175.547 168.558H175.401L139.626 246.147V168.558H97L125.737 103.421Z" fill="#FFBB55"/>
<path id="Vector 12_2" d="M72.4416 145L57 174.425H86L72.4416 208" stroke="#DEF261" stroke-width="10"/>
<path id="Vector 13_2" d="M212.442 145L197 174.425H226L212.442 208" stroke="#DEF261" stroke-width="10"/>
</g>
</g>
</g>
</g>
</svg>
